<?xml version="1.0" encoding="iso-8859-1"?>
<!-- Generator: Adobe Illustrator 19.0.0, SVG Export Plug-In . SVG Version: 6.00 Build 0)  -->
<svg version="1.1" id="Layer_1" xmlns="http://www.w3.org/2000/svg" xmlns:xlink="http://www.w3.org/1999/xlink" x="0px" y="0px"
	 viewBox="0 0 512 512" style="enable-background:new 0 0 512 512;" xml:space="preserve">
<circle style="fill:#515262;" cx="256" cy="256" r="256"/>
<circle style="fill:#EFF2FA;" cx="256" cy="256" r="150.069"/>
<path style="fill:#464655;" d="M256,88.276c92.631,0,167.724,75.093,167.724,167.724S348.631,423.724,256,423.724
	S88.276,348.631,88.276,256S163.369,88.276,256,88.276 M256,70.621c-102.219,0-185.379,83.16-185.379,185.379
	S153.781,441.379,256,441.379S441.379,358.219,441.379,256S358.219,70.621,256,70.621L256,70.621z"/>
<g>
	<path style="fill:#EFF2FA;" d="M256,0c-15.06,0-29.791,1.375-44.138,3.87v40.705c0,6.702,5.931,11.938,12.551,10.889
		c10.295-1.632,20.84-2.498,31.587-2.498s21.292,0.866,31.587,2.498c6.62,1.049,12.551-4.186,12.551-10.889V3.87
		C285.791,1.375,271.06,0,256,0z"/>
	<path style="fill:#EFF2FA;" d="M211.862,467.425v40.705C226.209,510.625,240.94,512,256,512c15.06,0,29.791-1.375,44.138-3.87
		v-40.705c0-6.702-5.931-11.938-12.551-10.889c-10.295,1.632-20.84,2.498-31.587,2.498s-21.292-0.866-31.587-2.498
		C217.793,455.487,211.862,460.723,211.862,467.425z"/>
	<path style="fill:#EFF2FA;" d="M512,256c0-15.06-1.375-29.791-3.87-44.138h-40.705c-6.702,0-11.938,5.931-10.889,12.551
		c1.632,10.295,2.498,20.84,2.498,31.587s-0.866,21.292-2.498,31.587c-1.049,6.62,4.186,12.551,10.889,12.551h40.705
		C510.625,285.791,512,271.06,512,256z"/>
	<path style="fill:#EFF2FA;" d="M44.575,211.862H3.87C1.375,226.209,0,240.94,0,256c0,15.06,1.375,29.791,3.87,44.138h40.705
		c6.702,0,11.938-5.931,10.889-12.551c-1.632-10.295-2.498-20.84-2.498-31.587s0.866-21.292,2.498-31.587
		C56.513,217.793,51.277,211.862,44.575,211.862z"/>
	<path style="fill:#EFF2FA;" d="M437.02,74.98c-10.649-10.649-22.038-20.093-33.946-28.474L374.29,75.289
		c-4.739,4.739-4.247,12.636,1.175,16.574c8.434,6.125,16.502,12.97,24.102,20.569c7.599,7.599,14.444,15.668,20.569,24.102
		c3.938,5.422,11.834,5.914,16.574,1.175l28.783-28.783C457.112,97.018,447.669,85.63,437.02,74.98z"/>
	<path style="fill:#EFF2FA;" d="M75.289,374.29l-28.783,28.783c8.381,11.908,17.825,23.297,28.474,33.946
		s22.038,20.093,33.946,28.474l28.783-28.783c4.739-4.739,4.247-12.636-1.175-16.574c-8.434-6.125-16.502-12.97-24.102-20.569
		c-7.599-7.599-14.444-15.668-20.569-24.102C87.925,370.043,80.029,369.55,75.289,374.29z"/>
	<path style="fill:#EFF2FA;" d="M437.02,437.02c10.649-10.649,20.093-22.038,28.474-33.946L436.71,374.29
		c-4.739-4.739-12.636-4.247-16.574,1.175c-6.125,8.434-12.97,16.502-20.569,24.102c-7.599,7.599-15.668,14.444-24.102,20.569
		c-5.422,3.938-5.914,11.834-1.175,16.574l28.783,28.783C414.982,457.112,426.37,447.669,437.02,437.02z"/>
	<path style="fill:#EFF2FA;" d="M137.71,75.289l-28.783-28.782C97.018,54.888,85.63,64.331,74.98,74.98
		s-20.093,22.038-28.473,33.946l28.782,28.783c4.739,4.739,12.636,4.247,16.574-1.175c6.125-8.434,12.97-16.502,20.569-24.102
		c7.599-7.599,15.668-14.444,24.102-20.569C141.958,87.925,142.45,80.029,137.71,75.289z"/>
	<circle style="fill:#EFF2FA;" cx="52.105" cy="340.458" r="13.241"/>
	<circle style="fill:#EFF2FA;" cx="459.895" cy="171.542" r="13.241"/>
	<circle style="fill:#EFF2FA;" cx="171.542" cy="52.105" r="13.241"/>
	<circle style="fill:#EFF2FA;" cx="340.458" cy="459.895" r="13.241"/>
	<circle style="fill:#EFF2FA;" cx="52.105" cy="171.542" r="13.241"/>
	<circle style="fill:#EFF2FA;" cx="459.895" cy="340.458" r="13.241"/>
	<circle style="fill:#EFF2FA;" cx="340.458" cy="52.105" r="13.241"/>
	<circle style="fill:#EFF2FA;" cx="171.542" cy="459.895" r="13.241"/>
	<path style="fill:#EFF2FA;" d="M404.12,145l-15.311,8.84c8.96,11.63,16.511,24.388,22.2,38.15l15.389-8.885
		C420.533,169.446,412.941,156.739,404.12,145z"/>
	<path style="fill:#EFF2FA;" d="M320.012,100.99c13.761,5.689,26.519,13.24,38.15,22.2l8.84-15.311
		c-11.74-8.821-24.446-16.413-38.104-22.278L320.012,100.99z"/>
	<path style="fill:#EFF2FA;" d="M233.931,72.061v17.833c7.24-0.954,14.569-1.618,22.069-1.618c7.5,0,14.829,0.663,22.069,1.617
		V72.061c-7.251-0.866-14.589-1.44-22.069-1.44S241.182,71.194,233.931,72.061z"/>
	<path style="fill:#EFF2FA;" d="M423.724,256c0,7.5-0.663,14.829-1.617,22.069h17.832c0.866-7.251,1.44-14.589,1.44-22.069
		s-0.575-14.818-1.44-22.069h-17.833C423.061,241.171,423.724,248.5,423.724,256z"/>
	<path style="fill:#EFF2FA;" d="M88.276,256c0-7.5,0.663-14.829,1.617-22.069H72.061c-0.866,7.251-1.44,14.589-1.44,22.069
		s0.575,14.818,1.44,22.069h17.832C88.939,270.829,88.276,263.5,88.276,256z"/>
	<path style="fill:#EFF2FA;" d="M153.838,123.191c11.63-8.96,24.388-16.511,38.15-22.2l-8.885-15.389
		c-13.658,5.866-26.365,13.458-38.104,22.278L153.838,123.191z"/>
	<path style="fill:#EFF2FA;" d="M426.399,328.896l-15.389-8.885c-5.689,13.761-13.24,26.518-22.2,38.148l15.31,8.84
		C412.941,355.261,420.533,342.554,426.399,328.896z"/>
	<path style="fill:#EFF2FA;" d="M278.069,439.939v-17.833c-7.24,0.954-14.569,1.617-22.069,1.617c-7.5,0-14.829-0.663-22.069-1.617
		v17.833c7.251,0.865,14.589,1.44,22.069,1.44S270.818,440.804,278.069,439.939z"/>
	<path style="fill:#EFF2FA;" d="M358.161,388.809c-11.63,8.96-24.388,16.511-38.15,22.2l8.885,15.389
		c13.657-5.866,26.365-13.458,38.104-22.279L358.161,388.809z"/>
	<path style="fill:#EFF2FA;" d="M191.988,411.009c-13.761-5.689-26.519-13.24-38.15-22.2l-8.84,15.31
		c11.74,8.821,24.446,16.413,38.104,22.279L191.988,411.009z"/>
	<path style="fill:#EFF2FA;" d="M123.19,358.161c-8.96-11.63-16.51-24.387-22.2-38.148l-15.389,8.885
		c5.865,13.658,13.458,26.364,22.278,38.103L123.19,358.161z"/>
	<path style="fill:#EFF2FA;" d="M85.601,183.103l15.389,8.885c5.689-13.761,13.24-26.519,22.2-38.15l-15.311-8.84
		C99.059,156.739,91.467,169.446,85.601,183.103z"/>
</g>
<path style="fill:#515262;" d="M317.352,234.223c-17.601-1.01-33.006,8.697-40.395,23.183c-1.631,3.198-4.351,5.711-7.759,6.839
	c-0.042,0.014-0.085,0.028-0.127,0.042c-2.898,0.956-5.794-1.515-5.34-4.533c0.998-6.63,2.567-13.073,4.646-19.283
	c1.129-3.372,3.597-6.079,6.769-7.689c14.527-7.374,24.268-22.801,23.257-40.431c-1.236-21.553-19.166-39.159-40.736-40.029
	c-24.312-0.98-44.33,18.439-44.33,42.534c0,16.598,9.517,30.94,23.38,37.953c3.144,1.59,5.582,4.278,6.702,7.617
	c2.087,6.225,3.66,12.683,4.66,19.328c0.455,3.018-2.442,5.489-5.34,4.533c-0.044-0.014-0.087-0.029-0.131-0.043
	c-3.406-1.127-6.123-3.638-7.753-6.834c-7.388-14.489-22.794-24.198-40.397-23.188c-21.553,1.236-39.159,19.166-40.029,40.737
	c-0.98,24.312,18.439,44.33,42.534,44.33c16.544,0,30.846-9.455,37.884-23.244c1.638-3.208,4.367-5.728,7.787-6.858
	c0.04-0.013,0.079-0.026,0.119-0.04c2.9-0.956,5.788,1.517,5.34,4.537c-3.006,20.223-11.295,38.718-23.418,54.046
	c-2.425,3.066-0.18,7.578,3.731,7.578h55.001c3.91,0,6.156-4.512,3.731-7.578c-12.124-15.328-20.413-33.823-23.418-54.046
	c-0.449-3.02,2.439-5.493,5.34-4.537c0.04,0.013,0.079,0.026,0.119,0.04c3.42,1.131,6.15,3.65,7.787,6.858
	c7.038,13.789,21.34,23.244,37.884,23.244c24.094,0,43.513-20.018,42.534-44.33C356.51,253.39,338.904,235.46,317.352,234.223z"/>
<g>
</g>
<g>
</g>
<g>
</g>
<g>
</g>
<g>
</g>
<g>
</g>
<g>
</g>
<g>
</g>
<g>
</g>
<g>
</g>
<g>
</g>
<g>
</g>
<g>
</g>
<g>
</g>
<g>
</g>
</svg>
